<?xml version="1.0" encoding="utf-8"?>
<!-- Generator: Adobe Illustrator 22.0.0, SVG Export Plug-In . SVG Version: 6.00 Build 0)  -->
<svg version="1.1" id="Capa_1" xmlns="http://www.w3.org/2000/svg" xmlns:xlink="http://www.w3.org/1999/xlink" x="0px" y="0px"
	 viewBox="0 0 16.1 16.1" style="enable-background:new 0 0 16.1 16.1;" xml:space="preserve">
<style type="text/css">
	.st0{fill:#FFFFFF;}
</style>
<g>
	<path class="st0" d="M8.4,8.3C8.3,8.1,8.1,8,7.8,8c0.3-0.2,0.5-0.5,0.4-0.9c0-0.2-0.1-0.3-0.1-0.4C8,6.6,8,6.5,7.8,6.4
		C7.7,6.4,7.6,6.3,7.4,6.3C7.3,6.2,7.1,6.2,7,6.2V5.3H6.4v0.8L6,6.2V5.3H5.5v0.9l-0.3,0l-0.7,0v0.6h0.4C5,6.7,5.1,6.8,5.1,7v1v1.4
		c0,0.1-0.1,0.2-0.2,0.2H4.6l-0.1,0.6h0.7l0.2,0l0.2,0V11H6v-0.9l0.4,0V11H7v-0.9c0.2,0,0.4,0,0.5-0.1c0.1,0,0.3-0.1,0.4-0.1
		C8,9.9,8.1,9.8,8.2,9.8c0.1-0.1,0.2-0.2,0.2-0.3C8.5,9.3,8.5,9.2,8.5,9C8.6,8.7,8.5,8.5,8.4,8.3L8.4,8.3z M6.5,3.5
		c3.6,0,6.5,2.2,6.5,5c0,2.8-2.9,5-6.5,5c-0.8,0-1.5-0.1-2.2-0.3c-0.8,0.6-2.1,1.4-3.4,1.4C1.6,14,1.8,12.9,1.8,12
		C0.7,11.1,0,9.8,0,8.5C0,5.7,2.9,3.5,6.5,3.5L6.5,3.5z"/>
	<path class="st0" d="M15.1,9C15.7,8.2,16,7.4,16,6.5c0-2.8-2.9-5-6.5-5c-1.6,0-3,0.4-4.2,1.2C5.9,2.5,6.4,2.5,7,2.5
		c3.9,0,7,2.5,7,5.5c0,1.2-0.5,2.3-1.3,3.2c0.8,0.6,2.1,1.4,3.4,1.4C15.2,11.7,15.1,9.8,15.1,9L15.1,9z"/>
	<path class="st0" d="M6,6.8c0,0,0.1,0,0.1,0c0.1,0,0.1,0,0.2,0c0,0,0.1,0,0.2,0c0.1,0,0.2,0,0.2,0c0.1,0,0.1,0,0.2,0.1
		C7,6.9,7.1,6.9,7.1,7c0,0,0.1,0.1,0.1,0.1c0,0.1,0,0.1,0,0.2c0,0.1,0,0.1,0,0.2c0,0.1-0.1,0.1-0.1,0.1c0,0-0.1,0.1-0.1,0.1
		s-0.1,0-0.2,0.1c-0.1,0-0.1,0-0.2,0c0,0-0.1,0-0.2,0c-0.1,0-0.1,0-0.2,0c0,0-0.1,0-0.2,0c-0.1,0-0.1,0-0.1,0V6.8L6,6.8L6,6.8L6,6.8
		z M7.5,9.1c0,0.1,0,0.1-0.1,0.1S7.3,9.3,7.3,9.3c-0.1,0-0.1,0.1-0.2,0.1c-0.1,0-0.1,0-0.2,0c-0.1,0-0.1,0-0.2,0c-0.1,0-0.1,0-0.2,0
		c-0.1,0-0.1,0-0.2,0c0,0-0.1,0-0.2,0c-0.1,0-0.1,0-0.1,0V8.4c0,0,0.1,0,0.2,0s0.2,0,0.2,0c0.1,0,0.1,0,0.2,0c0.1,0,0.2,0,0.3,0
		c0.1,0,0.1,0,0.2,0.1c0.1,0,0.1,0.1,0.2,0.1c0.1,0,0.1,0.1,0.1,0.2c0,0.1,0.1,0.1,0.1,0.2C7.5,9,7.5,9.1,7.5,9.1L7.5,9.1z"/>
</g>
</svg>
