<?xml version="1.0" encoding="utf-8"?>
<!-- Generator: Adobe Illustrator 22.0.0, SVG Export Plug-In . SVG Version: 6.00 Build 0)  -->
<svg version="1.1" id="Layer_1" xmlns="http://www.w3.org/2000/svg" xmlns:xlink="http://www.w3.org/1999/xlink" x="0px" y="0px"
	 viewBox="0 0 512 512" style="enable-background:new 0 0 512 512;" xml:space="preserve">
<style type="text/css">
	.st0{fill:#FFFFFF;}
</style>
<path class="st0" d="M417.8,114.2l-1.3-3.2c0-0.1-0.1-0.2-0.2-0.2l-3.1-1.4c-25.8-11.7-62.3-14.6-94.5-15.9h-36.3
	c-0.4,0-0.5,0.6-0.2,0.7l74.6,35.8c0.4,0.2,0.2,0.8-0.3,0.7c-33.5-8.8-67.4-13.2-100.9-13.2c-33.4,0-67.1,4.4-100.6,13.1
	c-0.5,0.1-0.7-0.5-0.3-0.7L232,94.2c0.4-0.2,0.3-0.7-0.2-0.7h-39.3c-32.2,1.3-68.7,4.2-94.5,15.9l-3.1,1.4c-0.1,0-0.2,0.1-0.2,0.2
	l-1.3,3.2c-26.4,67-33.9,180.7-25.9,251.9l0.4,3.7l3,2.3c41.3,32,96.5,48.5,131.3,52.9l4.5,0.6c1.5,0.2,2.9-0.7,3.4-2l22.6-60.4
	c0.7-1.9-0.5-3.9-2.5-4.3l-6.9-1.1c-24.2-3.8-58.5-13.9-87.4-40.1c-0.6-0.6,0-1.6,0.8-1.3c2.4,0.9,4.9,1.9,7.6,2.9
	c6.6,2.6,13.3,5.2,17.7,6.3c31.1,7.4,62.6,11.1,93.7,11.1v-0.6h0.1l0,0.6c31.1,0,62.6-3.7,93.6-11.1c4.4-1.1,11.2-3.7,17.7-6.3
	c2.7-1,5.3-2.1,7.6-2.9c0.8-0.3,1.4,0.7,0.8,1.3c-28.9,26.2-63.2,36.2-87.4,40l-6.9,1.1c-2,0.3-3.2,2.4-2.5,4.2l22.6,60.6
	c0.5,1.4,1.9,2.2,3.4,2l4.5-0.6c34.7-4.4,90-20.8,131.3-52.9l3-2.3l0.4-3.7C451.8,294.9,444.3,181.2,417.8,114.2z M181.9,278.6
	c-28.1,2.5-51.5-20.9-49-49c1.9-21.5,19.3-38.9,40.8-40.8c28.1-2.5,51.5,20.9,49,49C220.7,259.4,203.4,276.7,181.9,278.6z
	 M337.7,278.6c-28.1,2.5-51.5-20.9-49-49c1.9-21.5,19.3-38.9,40.8-40.8c28.1-2.5,51.5,20.9,49,49
	C376.6,259.4,359.2,276.7,337.7,278.6z"/>
</svg>
