<?xml version="1.0" encoding="utf-8"?>
<!-- Generator: Adobe Illustrator 22.0.0, SVG Export Plug-In . SVG Version: 6.00 Build 0)  -->
<svg version="1.1" id="Capa_1" xmlns="http://www.w3.org/2000/svg" xmlns:xlink="http://www.w3.org/1999/xlink" x="0px" y="0px"
	 viewBox="0 0 314 314" style="enable-background:new 0 0 314 314;" xml:space="preserve">
<style type="text/css">
	.st0{fill:#FFFFFF;}
</style>
<g>
	<g id="_x34_28._Network">
		<g>
			<path class="st0" d="M266.9,109.9c-20.5,0-37.9,13.1-44.4,31.4H116.4l51.7-51.7c6.1,2.9,13,4.6,20.3,4.6
				c26,0,47.1-21.1,47.1-47.1c0-26-21.1-47.1-47.1-47.1c-26,0-47.1,21.1-47.1,47.1c0,7.3,1.7,14.1,4.6,20.3l-61.3,61.3
				c-8.6-11.4-22.2-18.7-37.6-18.7C21.1,109.9,0,131,0,157c0,26,21.1,47.1,47.1,47.1c15.4,0,29-7.4,37.6-18.8l61.3,61.3
				c-2.9,6.2-4.6,13-4.6,20.3c0,26,21.1,47.1,47.1,47.1c26,0,47.1-21.1,47.1-47.1c0-26-21.1-47.1-47.1-47.1
				c-7.3,0-14.1,1.7-20.3,4.6l-51.7-51.7h106.2c6.5,18.3,23.9,31.4,44.4,31.4c26,0,47.1-21.1,47.1-47.1
				C314,131,292.9,109.9,266.9,109.9z M188.4,31.4c8.7,0,15.7,7,15.7,15.7c0,8.7-7,15.7-15.7,15.7s-15.7-7-15.7-15.7
				C172.7,38.4,179.7,31.4,188.4,31.4z M47.1,172.7c-8.7,0-15.7-7-15.7-15.7c0-8.7,7-15.7,15.7-15.7c8.7,0,15.7,7,15.7,15.7
				C62.8,165.7,55.8,172.7,47.1,172.7z M188.4,251.2c8.7,0,15.7,7,15.7,15.7c0,8.7-7,15.7-15.7,15.7s-15.7-7-15.7-15.7
				C172.7,258.2,179.7,251.2,188.4,251.2z M266.9,172.7c-8.7,0-15.7-7-15.7-15.7c0-8.7,7-15.7,15.7-15.7c8.7,0,15.7,7,15.7,15.7
				C282.6,165.7,275.6,172.7,266.9,172.7z"/>
		</g>
	</g>
</g>
</svg>
