<?xml version="1.0" encoding="UTF-8" standalone="no"?>
<!-- Generator: Adobe Illustrator 22.0.0, SVG Export Plug-In . SVG Version: 6.00 Build 0)  -->

<svg
   xmlns:dc="http://purl.org/dc/elements/1.1/"
   xmlns:cc="http://creativecommons.org/ns#"
   xmlns:rdf="http://www.w3.org/1999/02/22-rdf-syntax-ns#"
   xmlns:svg="http://www.w3.org/2000/svg"
   xmlns="http://www.w3.org/2000/svg"
   xmlns:sodipodi="http://sodipodi.sourceforge.net/DTD/sodipodi-0.dtd"
   xmlns:inkscape="http://www.inkscape.org/namespaces/inkscape"
   version="1.1"
   id="Layer_1"
   x="0px"
   y="0px"
   viewBox="0 0 305 305"
   style="enable-background:new 0 0 305 305;"
   xml:space="preserve"
   sodipodi:docname="linux-p.svg"
   inkscape:version="0.92.2 5c3e80d, 2017-08-06"><metadata
     id="metadata3937"><rdf:RDF><cc:Work
         rdf:about=""><dc:format>image/svg+xml</dc:format><dc:type
           rdf:resource="http://purl.org/dc/dcmitype/StillImage" /></cc:Work></rdf:RDF></metadata><defs
     id="defs3935" /><sodipodi:namedview
     pagecolor="#ffffff"
     bordercolor="#666666"
     borderopacity="1"
     objecttolerance="10"
     gridtolerance="10"
     guidetolerance="10"
     inkscape:pageopacity="0"
     inkscape:pageshadow="2"
     inkscape:window-width="738"
     inkscape:window-height="480"
     id="namedview3933"
     showgrid="false"
     inkscape:zoom="0.77377049"
     inkscape:cx="152.5"
     inkscape:cy="152.5"
     inkscape:window-x="0"
     inkscape:window-y="0"
     inkscape:window-maximized="0"
     inkscape:current-layer="Layer_1" /><style
     type="text/css"
     id="style3928">
	.st0{fill:#AE2152;}
</style><g
     id="XMLID_91_"
     style="fill:#ffffff;fill-opacity:1"><path
       id="XMLID_92_"
       class="st0"
       d="M274.7,244.9c-8.9-3.7-12.8-8.5-12.4-15.8c0.4-8.5-4.4-14.7-6.7-17.1c1.4-5.3,5.4-23.5,0-39.3   c-5.8-16.9-23.5-42.8-41.8-68.2c-7.5-10.4-7.8-21.8-8.2-34.9c-0.4-12.5-0.8-26.7-7.8-42.5C190.1,9.9,174.8,0,155.9,0   C144.6,0,133,3.5,124,9.7c-18.3,12.6-15.9,40.1-14.3,58.3c0.2,2.5,0.4,4.8,0.5,6.9c1.1,17.8,0.1,27.2-1.2,30.1   c-0.8,1.9-4.9,7.2-9.1,12.8c-4.4,5.8-9.4,12.4-13.5,18.5c-4.9,7.4-8.8,18.7-12.7,29.6c-2.8,8-5.4,15.5-8,20   c-4.9,8.7-3.7,16.8-2.6,20.5c-1.8,1.3-4.5,3.8-6.8,8.6c-2.7,5.8-8.2,8.9-19.7,11.1c-5.3,1.1-8.9,3.3-10.8,6.6   c-2.8,4.8-1.3,10.8,0.1,14.9c2,6,0.8,9.9-1.5,16.8c-0.5,1.6-1.1,3.4-1.7,5.4c-1,3.2-0.6,6,1,8.5c4.3,6.6,17,9,30,10.5   c7.8,0.9,16.3,4,24.5,7c8.1,2.9,16.4,6,24,6.9c1.2,0.1,2.3,0.2,3.4,0.2c11.4,0,16.6-7.6,18.2-10.7c4.1-0.8,18.3-3.5,32.9-3.9   c14.6-0.4,28.7,2.5,32.7,3.4c1.3,2.4,4.6,7.9,9.8,10.7c2.9,1.6,6.9,2.5,11.1,2.5c0,0,0,0,0,0c4.4,0,12.8-1,19.5-8   c6.6-7,23.2-16,35.3-22.6c2.7-1.5,5.2-2.8,7.4-4.1c6.8-3.8,10.5-9.2,10.2-14.8C282.4,250.9,279.4,246.8,274.7,244.9z M124.2,243.5   c-0.8-6-8.5-11.9-17.4-18.7c-7.3-5.6-15.5-11.9-17.8-17.3c-4.7-11.1-1-30.6,5.4-40.6c3.2-5,5.8-12.6,8.3-20   c2.7-8,5.5-16.2,8.7-19.8c5-5.6,9.6-16.6,10.4-25.2c4.7,4.4,11.9,10.1,18.5,10.1c1,0,2-0.1,3-0.4c4.6-1.3,11.3-5.2,17.8-8.9   c5.6-3.2,12.5-7.2,15.1-7.6c4.5,6.4,30.3,63.7,33,82c2.1,14.6-0.1,26.6-1.2,31.3c-0.9-0.1-2-0.2-3.1-0.2c-7.2,0-9.1,3.9-9.6,6.3   c-1.3,6.1-1.4,25.6-1.4,30c-2.6,3.3-15.8,18.9-34.7,21.7c-7.7,1.1-14.9,1.7-21.4,1.7c-5.5,0-9.1-0.4-10.6-0.7l-9.5-10.9   C121.4,254.5,125.2,250.6,124.2,243.5z M136.3,64.1c-0.3,0.1-0.6,0.3-0.9,0.4c0-0.6-0.1-1.3-0.2-2c-1-6-5-10.3-9.4-10.3   c-0.3,0-0.7,0-1,0.1c-2.6,0.4-4.7,2.4-5.8,5.2c1-6.1,4.5-10.7,8.6-10.7c4.9,0,8.9,6.5,8.9,14.3C136.5,62.1,136.4,63.1,136.3,64.1z    M173.9,68.8c0.4-1.4,0.7-2.9,0.7-4.5c0-7-4.4-12.5-10.1-12.5c-5.6,0-10.1,5.6-10.1,12.5c0,0.5,0,0.9,0.1,1.4   c-0.3-0.1-0.6-0.2-0.9-0.3c-0.6-1.9-1-4-1-6c0-8.4,5.4-15.2,11.9-15.2c6.6,0,11.9,6.8,11.9,15.2C176.6,62.8,175.6,66.1,173.9,68.8z    M169.1,85.1c-0.1,0.4-0.3,0.6-2.5,1.8c-1.1,0.6-2.5,1.3-4.3,2.4l-1.2,0.7c-4.7,2.9-15.8,9.6-18.8,10c-2,0.3-3.3-0.5-6.1-2.4   c-0.6-0.4-1.3-0.9-2-1.4c-5.1-3.4-8.4-7-8.8-8.5c1.7-1.3,5.8-4.5,7.9-6.4c4.3-4,8.6-6.7,10.7-6.7c0.1,0,0.2,0,0.3,0   c2.5,0.4,8.7,2.9,13.2,4.7c2.1,0.8,3.9,1.6,5.2,2C166.7,82.7,168.8,84.4,169.1,85.1z M205,271.5c2.3-10.2,4.9-24,4.4-32.2   c-0.1-1.9-0.3-3.9-0.4-5.8c-0.3-3.6-0.7-9.1-0.3-10.7c0.1,0,0.2-0.1,0.3-0.1c0,4.7,1,14,8.5,17.2c2.2,1,4.8,1.5,7.5,1.5   c7.5,0,15.7-3.7,19.1-7c2-2,3.7-4.4,4.9-6.4c0.3,0.8,0.4,1.7,0.3,3c-0.4,6.9,2.9,16,9.3,19.4l0.9,0.5c2.3,1.2,8.3,4.4,8.4,5.9   c0,0-0.1,0.2-0.4,0.5c-1.5,1.4-6.8,4.1-12,6.7c-9.1,4.7-19.4,9.9-24.1,14.8c-6.5,6.9-13.9,11.5-18.4,11.5c-0.5,0-1-0.1-1.5-0.2   C206.9,288.4,202.9,281.4,205,271.5z M39.9,245.5c-0.5-2.3-0.9-4.1-0.5-5.9c0.3-1.3,6.8-2.7,9.5-3.3c3.9-0.8,7.9-1.7,10.5-3.3   c3.6-2.2,5.5-6.1,7.2-9.6c1.2-2.5,2.5-5.1,4-6c0.1-0.1,0.2-0.1,0.5-0.1c2.8,0,8.8,5.9,12.2,11.3c0.9,1.3,2.5,4,4.3,7.1   c5.6,9.3,13.2,22,17.1,26.3c3.6,3.8,9.4,11.2,8,17.5c-1,4.9-6.6,8.9-7.9,9.8c-0.5,0.1-1.1,0.2-1.8,0.2c-7.6,0-22.7-6.3-30.8-9.7   l-1.2-0.5c-4.5-1.9-11.9-3.1-19-4.2c-5.7-0.9-13.4-2.2-14.7-3.3c-1-1.2,0.2-5,1.2-8.3c0.8-2.4,1.6-4.9,2-7.5   C41.2,251.6,40.5,248.2,39.9,245.5z"
       style="fill:#ffffff;fill-opacity:1" /></g></svg>