<?xml version="1.0" encoding="utf-8"?>
<!-- Generator: Adobe Illustrator 22.0.0, SVG Export Plug-In . SVG Version: 6.00 Build 0)  -->
<svg version="1.1" id="Layer_1" xmlns="http://www.w3.org/2000/svg" xmlns:xlink="http://www.w3.org/1999/xlink" x="0px" y="0px"
	 viewBox="0 0 30 30" style="enable-background:new 0 0 30 30;" xml:space="preserve">
<style type="text/css">
	.st0{fill:#FFFFFF;}
</style>
<g>
	<g>
		<path class="st0" d="M21,7.6V5.2l1.9-3.8l0,0C23,1.3,23,1.2,23,1c0-0.6-0.4-1-1-1H8C7.4,0,7,0.4,7,1c0,0.2,0,0.3,0.1,0.4l0,0
			L9,5.2v2.4C5.4,9.7,3,13.6,3,18c0,6.6,0.1,12,12,12c12,0,12-5.4,12-12C27,13.6,24.6,9.7,21,7.6z M20.4,2l-1,2h-8.8l-1-2H20.4z
			 M19,6v2h-8V6H19z M15,28C4.5,28,5,23.5,5,18c0-3.3,1.6-6.2,4-8h12c2.4,1.8,4,4.7,4,8C25,23.5,25.5,28,15,28z"/>
	</g>
</g>
<g>
	<g>
		<path class="st0" d="M15.9,24.2L15.9,24.2l0-7.9l2.5,2.5c0.1,0.1,0.3,0.2,0.5,0.2s0.3-0.1,0.5-0.2l0.4-0.4
			c0.1-0.1,0.2-0.3,0.2-0.5c0-0.2-0.1-0.3-0.2-0.5l-4.3-4.3C15.3,13.1,15.2,13,15,13c-0.2,0-0.3,0.1-0.5,0.2l-4.3,4.3
			c-0.1,0.1-0.2,0.3-0.2,0.5c0,0.2,0.1,0.3,0.2,0.5l0.4,0.4c0.1,0.1,0.3,0.2,0.5,0.2c0.2,0,0.3-0.1,0.4-0.2l2.5-2.5v7.9
			c0,0.4,0.3,0.7,0.7,0.7h0.5C15.6,24.8,15.9,24.5,15.9,24.2z"/>
	</g>
</g>
</svg>
