<?xml version="1.0" encoding="utf-8"?>
<!-- Generator: Adobe Illustrator 22.0.0, SVG Export Plug-In . SVG Version: 6.00 Build 0)  -->
<svg version="1.1" id="Capa_1" xmlns="http://www.w3.org/2000/svg" xmlns:xlink="http://www.w3.org/1999/xlink" x="0px" y="0px"
	 viewBox="0 0 279.7 279.7" style="enable-background:new 0 0 279.7 279.7;" xml:space="preserve">
<style type="text/css">
	.st0{fill:#FFFFFF;}
</style>
<path class="st0" d="M279.7,133.1c0-19.3-15.7-35-35-35c-10.8,0-20.7,4.8-27.3,13.1c-18.5-8.4-39.7-13.6-62-15.3l19.2-60.7l42.9,9.3
	c3.3,12.8,14.9,22.3,28.7,22.3c16.3,0,29.6-13.3,29.6-29.6S262.6,7.5,246.2,7.5c-11.8,0-22,6.9-26.8,17L170,13.8
	c-5-1.1-10.1,1.8-11.7,6.8l-23.7,74.9c-26.2,0.6-51,6.1-72.4,15.8C55.7,103,45.8,98.1,35,98.1c-19.3,0-35,15.7-35,35
	c0,9.4,3.7,18.2,10.2,24.7c-3.9,8.4-5.9,17.1-5.9,25.9c0,24,14.4,46.5,40.5,63.2c25.4,16.3,59.2,25.2,95,25.2c35.8,0,69.5-9,95-25.2
	c26.1-16.7,40.5-39.2,40.5-63.2c0-8.9-2-17.6-5.9-25.9C276.1,151.3,279.7,142.5,279.7,133.1z M15.4,145.1c-2.2-3.6-3.4-7.7-3.4-12
	c0-12.7,10.3-23,23-23c5.4,0,10.6,1.9,14.6,5.3C35,123.7,23.5,133.7,15.4,145.1z M68,165.4c0-13.8,11.2-25,25-25s25,11.2,25,25
	s-11.2,25-25,25S68,179.2,68,165.4z M191.2,222.5c-9.7,10.6-29.4,17.2-51.3,17.2c-21.9,0-41.5-6.6-51.3-17.2c-1.8-2-2.7-4.5-2.6-7.2
	c0.1-2.7,1.3-5.1,3.2-6.9c1.8-1.7,4.2-2.6,6.8-2.6c2.8,0,5.5,1.2,7.4,3.2c5.8,6.3,20.8,10.8,36.5,10.8s30.7-4.4,36.5-10.8
	c1.9-2.1,4.6-3.2,7.4-3.2c2.5,0,4.9,0.9,6.8,2.6c2,1.8,3.1,4.3,3.2,6.9C193.9,217.9,193,220.5,191.2,222.5z M186.7,190.4
	c-13.8,0-25-11.2-25-25s11.2-25,25-25s25,11.2,25,25S200.5,190.4,186.7,190.4z M264.4,145.1c-8.1-11.4-19.7-21.4-34.3-29.7
	c4.1-3.4,9.2-5.3,14.6-5.3c12.7,0,23,10.3,23,23C267.7,137.5,266.6,141.5,264.4,145.1z"/>
</svg>
