<?xml version="1.0" encoding="utf-8"?>
<!-- Generator: Adobe Illustrator 22.0.0, SVG Export Plug-In . SVG Version: 6.00 Build 0)  -->
<svg version="1.1" id="Capa_1" xmlns="http://www.w3.org/2000/svg" xmlns:xlink="http://www.w3.org/1999/xlink" x="0px" y="0px"
	 viewBox="0 0 513.3 513.3" style="enable-background:new 0 0 513.3 513.3;" xml:space="preserve">
<style type="text/css">
	.st0{fill:#FFFFFF;}
</style>
<g>
	<g>
		<path class="st0" d="M421.3,117.6h-81.3c-8.6-42.8-42.8-64.2-83.4-64.2c-40.6,0-72.7,21.4-83.4,64.2H92L23.5,288.7h47.1l36.4-92
			l53.5,134.7H0v21.4c0,59.9,47.1,106.9,106.9,106.9s106.9-47.1,106.9-106.9v-4.3L139,160.4h36.4c8.6,42.8,42.8,64.2,83.4,64.2
			s72.7-21.4,83.4-64.2h32.1l-53.5,128.3h47.1l38.5-96.2l55.6,139H299.4v21.4c0,59.9,47.1,106.9,106.9,106.9s106.9-47.1,106.9-106.9
			v-4.3L421.3,117.6L421.3,117.6z M106.9,417.1c-27.8,0-51.3-21.4-59.9-42.8H169C158.3,395.7,134.7,417.1,106.9,417.1z M256.7,181.8
			c-23.5,0-42.8-19.2-42.8-42.8s19.2-42.8,42.8-42.8s42.8,19.2,42.8,42.8S280.2,181.8,256.7,181.8z M406.4,417.1
			c-27.8,0-51.3-21.4-59.9-42.8h121.9C457.7,395.7,434.2,417.1,406.4,417.1z"/>
	</g>
</g>
</svg>
